<?xml version="1.0" encoding="utf-8"?>
<!-- Generator: Adobe Illustrator 25.0.0, SVG Export Plug-In . SVG Version: 6.00 Build 0)  -->
<svg version="1.1" id="Layer_1" xmlns="http://www.w3.org/2000/svg" xmlns:xlink="http://www.w3.org/1999/xlink" x="0px" y="0px"
	 viewBox="0 0 841.89 595.28" style="enable-background:new 0 0 841.89 595.28;" xml:space="preserve">
<style type="text/css">
	.st0{fill:#E8C4B9;}
</style>
<path id="Path_17" class="st0" d="M521.89,135.73V107.5c0-28.42-9.53-51.85-28.59-70.29c-19.05-18.43-43.18-27.65-72.37-27.65
	c-31.62,0-56.35,9.41-74.19,28.22c-17.83,18.82-26.75,43.98-26.76,75.48v8.64c-0.03,1.37,0.18,2.73,0.6,4.04l0.61,9.79
	c-30-20.35-56.96-30.53-80.89-30.53c-18.65,0-36.49,5.95-53.51,17.86c-16.21,11.13-28.17,25.73-35.88,43.78
	c-5.67,12.68-8.51,25.36-8.51,38.03c0,38.79,23.51,68.37,70.54,88.72l9.12,4.04c-53.11,23.05-79.67,54.16-79.67,93.34
	c0,26.5,9.73,49.74,29.19,69.72c19.46,19.97,42.56,29.96,69.32,29.96c24.32,0,48.44-8.26,72.37-24.78l7.9-5.76
	c-0.82,7.68-1.22,16.9-1.22,27.66c0,28.8,9.53,52.33,28.58,70.58c19.05,18.24,43.18,27.36,72.37,27.37
	c32.03,0,56.87-9.51,74.5-28.52c17.63-19.01,26.45-43.89,26.46-74.62v-22.47c30,20.36,56.76,30.54,80.27,30.54
	c26.34,0,49.15-10.08,68.41-30.25c19.25-20.17,28.88-43.31,28.89-69.43c0-39.18-23.51-68.94-70.54-89.3l-9.12-4.04
	c53.11-23.04,79.67-53.96,79.67-92.76c0-24.97-9.53-47.82-28.59-68.56c-19.05-20.74-42.06-31.11-69.02-31.11
	c-26.96,0-50.78,8.06-71.46,24.2L521.89,135.73z M470.81,233.11c47.03-64.92,90.61-97.38,130.74-97.38
	c16.63,0,31.73,7.11,45.31,21.32c13.57,14.21,20.36,30.15,20.37,47.82c0,47.63-54.33,75.86-162.98,84.7v16.71
	c53.93,4.23,94.57,13.45,121.93,27.66c27.37,14.21,41.06,33.22,41.05,57.04c0,17.28-6.59,33.12-19.76,47.53
	c-13.18,14.41-28.48,21.61-45.91,21.61c-40.95,0-84.53-32.65-130.74-97.95L455,370.81c23.11,44.56,34.67,82.2,34.66,112.93
	c0,47.63-22.91,71.44-68.72,71.44c-21.89,0-38.92-6.34-51.08-19.01c-11.76-13.44-17.64-30.34-17.63-50.7
	c0-30.72,11.55-68.94,34.66-114.66l-15.81-8.64c-46.22,65.3-89.81,97.95-130.75,97.95c-16.62,0-31.72-6.82-45.3-20.45
	c-13.58-13.63-20.38-29.86-20.38-48.68c0-47.63,54.12-75.86,162.37-84.7v-16.71c-108.25-8.45-162.37-36.69-162.38-84.7
	c0-16.91,6.49-32.66,19.47-47.25c12.97-14.6,28.37-21.9,46.21-21.9c40.14,0,83.72,32.46,130.75,97.38l15.81-8.07
	c-23.11-44.94-34.67-83.35-34.66-115.23c0-20.36,5.88-37.26,17.63-50.7c12.16-12.68,29.19-19.02,51.08-19.01
	c45.81,0,68.72,23.62,68.72,70.87c0,31.11-11.55,69.14-34.66,114.07L470.81,233.11z"/>
</svg>
